<?xml version="1.0" encoding="UTF-8"?>
<svg xmlns="http://www.w3.org/2000/svg" xmlns:xlink="http://www.w3.org/1999/xlink" width="975pt" height="330pt" viewBox="0 0 975 330" version="1.1">
<defs>
<clipPath id="clip1">
  <path d="M 0 0 L 975 0 L 975 330 L 0 330 Z M 0 0 "/>
</clipPath>
</defs>
<g id="surface0">
<g clip-path="url(#clip1)" clip-rule="nonzero">
<path style="fill-rule:evenodd;fill:rgb(98.431373%,99.215686%,54.117647%);fill-opacity:1;stroke-width:2;stroke-linecap:square;stroke-linejoin:miter;stroke:rgb(98.431373%,99.215686%,54.117647%);stroke-opacity:1;stroke-miterlimit:2400;" d="M -0.000000000000198952 12.871458 C -0.000000000000198952 5.762083 5.760417 0.00166667 12.869792 0.00166667 L 247.130208 0.00166667 C 254.239583 0.00166667 260 5.762083 260 12.871458 L 260 404.131875 C 260 411.24125 254.239583 417.001667 247.130208 417.001667 L 12.869792 417.001667 C 5.760417 417.001667 -0.000000000000198952 411.24125 -0.000000000000198952 404.131875 Z M -0.000000000000198952 12.871458 " transform="matrix(0.75,0,0,0.75,13.5,7.53)"/>
<path style="fill-rule:evenodd;fill:rgb(52.941176%,87.45098%,83.921569%);fill-opacity:1;stroke-width:2;stroke-linecap:square;stroke-linejoin:miter;stroke:rgb(52.941176%,87.45098%,83.921569%);stroke-opacity:1;stroke-miterlimit:2400;" d="M 0 0.00166667 L 188 0.00166667 L 188 311.001667 L 0 311.001667 Z M 0 0.00166667 " transform="matrix(0.75,0,0,0.75,40.5,30.03)"/>
<path style="fill-rule:evenodd;fill:rgb(46.666667%,46.666667%,46.666667%);fill-opacity:1;stroke-width:2;stroke-linecap:round;stroke-linejoin:round;stroke:rgb(46.666667%,46.666667%,46.666667%);stroke-opacity:1;stroke-miterlimit:10;" d="M 55 20.952527 C 55 34.171277 42.6875 44.890027 27.5 44.890027 C 12.3125 44.890027 0 34.171277 0 20.952527 C 0 7.718152 12.3125 -3.000598 27.5 -3.000598 C 42.6875 -3.000598 55 7.718152 55 20.952527 Z M 55 20.952527 " transform="matrix(0.75,0,0,0.75,90.375,273.445761)"/>
<path style="fill:none;stroke-width:2;stroke-linecap:square;stroke-linejoin:miter;stroke:rgb(96.078431%,96.078431%,98.039216%);stroke-opacity:1;stroke-miterlimit:2400;" d="M 0 0.00166667 L 16 0.00166667 L 16 16.001667 L 0 16.001667 Z M 0 0.00166667 " transform="matrix(0.75,0,0,0.75,145.5,286.155)"/>
<path style="fill-rule:nonzero;fill:rgb(98.431373%,99.215686%,54.117647%);fill-opacity:1;stroke-width:1;stroke-linecap:butt;stroke-linejoin:miter;stroke:rgb(98.431373%,99.215686%,54.117647%);stroke-opacity:1;stroke-miterlimit:10;" d="M 200.958758 51.211932 C 201.281675 51.211932 199.838966 51.852557 198.719175 52.972348 C 197.599383 54.09214 196.958758 55.52964 196.958758 55.691098 L 196.958758 89.769223 C 196.958758 89.930682 197.599383 91.368182 198.719175 92.487973 C 199.838966 93.607765 201.281675 94.24839 201.281675 94.24839 L 227.521258 94.24839 C 227.521258 94.24839 228.802508 93.607765 229.9223 92.487973 C 230.880633 91.368182 231.521258 89.930682 231.521258 89.769223 L 231.521258 55.691098 C 231.521258 55.52964 230.880633 54.09214 229.9223 52.972348 C 228.802508 51.852557 227.521258 51.211932 227.838966 51.211932 L 200.958758 51.211932 Z M 875.521258 33.930682 L 908.64105 33.930682 C 914.07855 33.930682 917.281675 36.972348 917.281675 42.409848 C 917.281675 48.008807 914.240008 51.050473 910.240008 51.050473 L 877.120216 51.368182 C 875.3598 51.368182 873.9223 52.008807 872.802508 53.128598 C 871.677508 54.24839 871.198341 55.52964 871.198341 57.128598 C 871.198341 57.128598 871.838966 61.769223 872.958758 62.727557 C 874.07855 63.852557 875.521258 64.487973 875.677508 64.487973 L 883.838966 64.487973 C 885.599383 64.487973 885.807716 64.649432 900.958758 64.331723 C 909.401466 64.170265 914.557716 66.409848 918.240008 69.930682 C 921.760841 73.451515 924.161883 78.409848 924.318133 88.331723 C 924.318133 96.972348 922.07855 101.930682 918.557716 105.607765 C 914.880633 109.128598 909.9223 111.52964 902.880633 111.52964 L 867.198341 111.52964 C 861.760841 111.52964 858.557716 108.487973 858.557716 103.050473 C 858.557716 97.607765 861.599383 94.409848 865.437925 94.409848 L 901.281675 94.24839 C 902.880633 94.24839 904.479591 93.451515 905.437925 92.487973 C 906.557716 91.368182 907.198341 89.930682 907.198341 91.691098 L 907.042091 87.050473 C 907.042091 85.607765 906.401466 84.170265 905.281675 83.211932 C 904.161883 82.09214 902.719175 81.451515 904.161883 81.451515 L 886.401466 81.607765 L 875.838966 81.607765 C 868.802508 81.607765 863.677508 79.52964 860.161883 76.008807 C 853.9223 70.09214 851.042091 48.909848 859.838966 40.008807 C 863.3598 36.487973 868.479591 33.930682 875.521258 33.930682 Z M 785.760841 33.930682 L 818.719175 33.930682 C 821.9223 33.930682 823.677508 34.24839 825.120216 34.727557 C 826.557716 35.368182 828.000425 36.170265 829.120216 36.972348 C 831.521258 38.889015 833.120216 41.128598 834.240008 43.52964 C 834.880633 45.128598 835.521258 46.889015 835.838966 48.487973 C 836.318133 50.727557 836.64105 53.290057 836.64105 57.128598 C 836.64105 61.769223 836.161883 64.81089 835.3598 67.691098 C 834.401466 70.727557 832.958758 73.451515 830.557716 76.008807 C 829.120216 77.607765 827.042091 78.889015 824.64105 79.691098 C 823.198341 80.170265 821.760841 80.331723 818.719175 80.331723 L 790.880633 80.331723 C 785.437925 80.331723 782.240008 77.290057 782.240008 71.691098 C 782.240008 66.24839 785.437925 63.211932 790.880633 63.211932 L 817.120216 63.211932 C 817.437925 63.050473 817.599383 62.889015 818.240008 61.607765 C 819.042091 59.852557 819.3598 57.451515 819.3598 57.128598 C 819.3598 57.290057 819.198341 55.852557 818.880633 54.571307 C 818.401466 53.128598 818.07855 52.008807 817.120216 51.211932 L 785.760841 51.211932 C 785.599383 51.211932 784.161883 51.852557 783.042091 52.972348 C 781.9223 54.09214 781.281675 55.52964 781.281675 55.691098 L 781.281675 89.769223 C 781.281675 89.930682 781.9223 91.368182 783.042091 92.487973 C 784.161883 93.607765 785.599383 94.24839 785.760841 94.24839 L 827.677508 94.24839 C 833.281675 94.24839 836.318133 97.451515 836.318133 102.889015 C 836.318133 108.331723 833.281675 111.52964 827.677508 111.52964 L 785.760841 111.52964 C 778.719175 111.52964 773.599383 109.290057 769.9223 105.769223 C 766.401466 102.09214 764.000425 97.128598 764.000425 89.769223 L 764.000425 55.691098 C 764.000425 48.487973 766.401466 43.368182 769.9223 39.852557 C 773.599383 36.170265 778.719175 33.930682 785.760841 33.930682 Z M 697.599383 33.930682 L 730.719175 33.930682 C 736.161883 33.930682 739.3598 36.972348 739.3598 42.409848 C 739.3598 48.008807 736.318133 51.050473 732.318133 51.050473 L 699.198341 51.368182 C 697.437925 51.368182 696.000425 52.008807 694.880633 53.128598 C 693.760841 54.24839 693.281675 55.52964 693.281675 57.128598 C 693.281675 57.128598 693.9223 61.769223 695.042091 62.727557 C 696.161883 63.852557 697.599383 64.487973 697.760841 64.487973 L 705.9223 64.487973 C 707.677508 64.487973 707.89105 64.649432 723.042091 64.331723 C 731.479591 64.170265 736.64105 66.409848 740.318133 69.930682 C 743.838966 73.451515 746.240008 78.409848 746.401466 88.331723 C 746.401466 96.972348 744.161883 101.930682 740.64105 105.607765 C 736.958758 109.128598 732.000425 111.52964 724.958758 111.52964 L 689.281675 111.52964 C 683.838966 111.52964 680.64105 108.487973 680.64105 103.050473 C 680.64105 97.607765 683.677508 94.409848 687.521258 94.409848 L 723.3598 94.24839 C 724.958758 94.24839 726.557716 93.451515 727.521258 92.487973 C 728.64105 91.368182 729.281675 89.930682 729.281675 91.691098 L 729.120216 87.050473 C 729.120216 85.607765 728.479591 84.170265 727.3598 83.211932 C 726.240008 82.09214 724.802508 81.451515 726.240008 81.451515 L 708.479591 81.607765 L 697.9223 81.607765 C 690.880633 81.607765 685.760841 79.52964 682.240008 76.008807 C 676.000425 70.09214 673.120216 48.909848 681.9223 40.008807 C 685.437925 36.487973 690.557716 33.930682 697.599383 33.930682 Z M 607.677508 33.930682 L 636.958758 33.930682 C 644.161883 33.930682 649.120216 36.170265 652.802508 39.852557 C 656.479591 43.52964 658.719175 48.487973 658.719175 55.691098 L 658.719175 102.727557 C 658.719175 108.170265 655.521258 111.368182 650.07855 111.368182 C 644.64105 111.368182 641.437925 108.170265 641.437925 102.727557 L 641.437925 55.691098 C 641.437925 55.52964 640.802508 54.09214 639.677508 52.972348 C 638.557716 51.852557 637.120216 51.211932 636.958758 51.211932 L 607.677508 51.211932 C 607.521258 51.211932 606.07855 51.852557 604.958758 52.972348 C 603.838966 54.09214 603.198341 55.52964 603.198341 55.691098 L 603.198341 89.769223 C 603.198341 89.930682 603.838966 91.368182 604.958758 92.487973 C 606.07855 93.607765 607.521258 94.24839 607.677508 94.24839 L 630.240008 94.24839 C 635.677508 94.24839 638.880633 97.451515 638.880633 102.889015 C 638.880633 108.331723 635.677508 111.52964 630.240008 111.52964 L 607.677508 111.52964 C 600.479591 111.52964 595.3598 109.290057 591.838966 105.607765 C 588.161883 102.09214 585.9223 96.972348 585.9223 89.769223 L 585.9223 55.691098 C 585.9223 48.487973 588.161883 43.52964 591.838966 39.852557 C 595.3598 36.170265 600.479591 33.930682 607.677508 33.930682 Z M 371.838966 33.930682 L 404.802508 33.930682 C 408.000425 33.930682 409.760841 34.24839 411.198341 34.727557 C 412.64105 35.368182 414.07855 36.170265 415.198341 36.972348 C 417.599383 38.889015 419.198341 41.128598 420.318133 43.52964 C 420.958758 45.128598 421.599383 46.889015 421.9223 48.487973 C 422.401466 50.727557 422.719175 53.290057 422.719175 57.128598 C 422.719175 61.769223 422.240008 64.81089 421.437925 67.691098 C 420.479591 70.727557 419.042091 73.451515 416.64105 76.008807 C 415.198341 77.607765 413.120216 78.889015 410.719175 79.691098 C 409.281675 80.170265 407.838966 80.331723 404.802508 80.331723 L 376.958758 80.331723 C 371.521258 80.331723 368.318133 77.290057 368.318133 71.691098 C 368.318133 66.24839 371.521258 63.211932 376.958758 63.211932 L 403.198341 63.211932 C 403.521258 63.050473 403.677508 62.889015 404.318133 61.607765 C 405.120216 59.852557 405.437925 57.451515 405.437925 57.128598 C 405.437925 57.290057 405.281675 55.852557 404.958758 54.571307 C 404.479591 53.128598 404.161883 52.008807 403.198341 51.211932 L 371.838966 51.211932 C 371.677508 51.211932 370.240008 51.852557 369.120216 52.972348 C 368.000425 54.09214 367.3598 55.52964 367.3598 55.691098 L 367.3598 89.769223 C 367.3598 89.930682 368.000425 91.368182 369.120216 92.487973 C 370.240008 93.607765 371.677508 94.24839 371.838966 94.24839 L 413.760841 94.24839 C 419.3598 94.24839 422.401466 97.451515 422.401466 102.889015 C 422.401466 108.331723 419.3598 111.52964 413.760841 111.52964 L 371.838966 111.52964 C 364.802508 111.52964 359.677508 109.290057 356.000425 105.769223 C 352.479591 102.09214 350.07855 97.128598 350.07855 89.769223 L 350.07855 55.691098 C 350.07855 48.487973 352.479591 43.368182 356.000425 39.852557 C 359.677508 36.170265 364.802508 33.930682 371.838966 33.930682 Z M 288.479591 33.930682 L 309.437925 33.930682 C 316.64105 33.930682 321.599383 36.170265 325.120216 39.852557 C 328.802508 43.52964 330.880633 48.649432 330.880633 55.691098 L 330.880633 102.727557 C 330.880633 108.331723 327.838966 111.52964 322.240008 111.52964 C 316.802508 111.52964 313.599383 108.331723 313.599383 102.727557 L 313.599383 55.691098 C 313.599383 54.09214 311.3598 51.368182 310.07855 51.368182 L 289.281675 51.368182 C 286.401466 51.691098 284.318133 54.409848 284.318133 55.691098 L 284.318133 102.09214 C 284.318133 107.52964 281.120216 111.52964 275.677508 111.52964 C 270.07855 111.52964 266.880633 107.52964 266.880633 102.09214 L 266.880633 55.52964 C 266.880633 48.487973 269.120216 43.52964 272.64105 39.852557 C 276.318133 36.170265 281.281675 33.930682 288.479591 33.930682 Z M 201.281675 33.930682 L 230.719175 33.930682 C 235.198341 34.24839 239.198341 36.649432 242.240008 39.852557 C 245.599383 43.52964 247.677508 48.487973 247.677508 55.691098 L 247.677508 89.769223 C 247.677508 96.972348 245.599383 102.09214 242.240008 105.607765 C 238.880633 109.290057 234.240008 111.52964 227.521258 111.52964 L 201.281675 111.52964 C 194.240008 111.52964 189.281675 109.290057 185.599383 105.607765 C 182.07855 102.09214 179.838966 96.972348 179.838966 89.769223 L 179.838966 55.691098 C 179.838966 48.487973 182.07855 43.52964 185.599383 39.852557 C 189.281675 36.170265 194.240008 33.930682 201.281675 33.930682 Z M 100.958758 0.170265 C 106.401466 0.170265 109.599383 3.211932 109.599383 8.81089 L 109.599383 33.930682 L 140.64105 33.930682 C 147.677508 33.930682 152.802508 36.170265 156.479591 39.691098 C 160.000425 43.368182 162.240008 48.331723 162.240008 55.52964 L 162.240008 102.889015 C 162.240008 108.331723 159.198341 111.52964 153.760841 111.52964 C 148.161883 111.52964 145.120216 108.331723 145.120216 102.889015 L 145.120216 55.52964 C 145.120216 55.368182 144.479591 53.930682 143.3598 52.81089 C 142.240008 51.691098 140.64105 51.050473 140.64105 51.050473 L 109.599383 51.050473 L 109.599383 102.889015 C 109.599383 108.331723 106.401466 111.52964 100.958758 111.52964 C 95.521258 111.52964 92.318133 108.331723 92.318133 102.889015 L 92.318133 8.81089 C 92.318133 3.211932 95.521258 0.170265 100.958758 0.170265 Z M 511.677508 0.00880652 L 558.07855 0.00880652 C 563.677508 0.00880652 566.719175 3.211932 566.719175 8.649432 C 566.719175 14.09214 563.677508 17.290057 558.07855 17.290057 L 511.677508 17.290057 C 511.521258 17.290057 510.07855 17.930682 508.958758 19.050473 C 507.838966 20.170265 507.198341 21.607765 507.198341 21.769223 L 507.198341 89.769223 C 507.198341 89.930682 507.838966 91.368182 508.958758 92.487973 C 510.07855 93.607765 511.521258 94.24839 511.677508 94.24839 L 558.07855 94.24839 C 563.677508 94.24839 566.719175 97.451515 566.719175 102.889015 C 566.719175 108.331723 563.677508 111.52964 558.07855 111.52964 L 511.677508 111.52964 C 504.479591 111.52964 499.3598 109.290057 495.838966 105.607765 C 492.161883 102.09214 489.9223 96.972348 489.9223 89.769223 L 489.9223 21.769223 C 489.9223 14.571307 492.161883 9.607765 495.838966 5.930682 C 499.3598 2.24839 504.479591 0.00880652 511.677508 0.00880652 Z M 23.3598 0.00880652 L 51.3598 0.00880652 C 58.401466 0.00880652 63.677508 2.24839 67.3598 5.769223 C 70.880633 9.607765 73.120216 14.727557 73.120216 21.607765 L 73.120216 55.368182 C 73.120216 62.409848 70.880633 67.52964 67.3598 71.050473 C 63.677508 74.889015 58.401466 77.128598 51.3598 77.128598 L 28.479591 77.128598 C 23.042091 77.128598 19.838966 74.09214 19.838966 68.331723 C 19.838966 62.889015 23.042091 59.852557 28.479591 59.852557 L 51.3598 59.852557 C 51.3598 59.852557 52.802508 59.050473 53.9223 57.930682 C 55.042091 56.81089 55.838966 55.368182 55.838966 55.368182 L 55.838966 21.607765 C 55.838966 21.607765 55.042091 20.170265 53.9223 19.050473 C 52.802508 17.930682 51.3598 17.290057 51.3598 17.290057 L 21.760841 17.290057 C 21.760841 17.290057 20.318133 17.930682 19.198341 19.050473 C 18.07855 20.170265 17.281675 21.607765 17.281675 21.607765 L 17.281675 102.889015 C 17.281675 108.331723 14.07855 111.52964 8.64105 111.52964 C 3.042091 111.52964 0.000424517 108.331723 0.000424517 102.889015 L 0.000424517 21.607765 C 0.000424517 14.727557 2.240008 9.607765 5.9223 5.769223 C 9.437925 2.24839 14.911883 -0.147443 23.3598 0.00880652 Z M 23.3598 0.00880652 " transform="matrix(0.75,0,0,0.75,249.566088,56.938708)"/>
<path style="fill-rule:nonzero;fill:rgb(98.431373%,99.215686%,54.117647%);fill-opacity:1;stroke-width:1;stroke-linecap:butt;stroke-linejoin:miter;stroke:rgb(98.431373%,99.215686%,54.117647%);stroke-opacity:1;stroke-miterlimit:10;" d="M 201.451286 17.928327 C 198.732536 18.089786 196.97212 21.287702 196.810661 23.850202 L 196.810661 88.329369 C 196.97212 91.048119 198.571078 94.251244 200.170036 94.251244 L 227.852328 94.251244 C 230.888786 94.089786 232.331495 91.048119 232.487745 88.329369 L 232.487745 23.850202 C 232.331495 21.131452 230.888786 18.089786 226.888786 17.928327 L 201.451286 17.928327 Z M 97.211703 0.610619 C 101.649203 0.532494 106.091911 3.131452 106.091911 8.652286 L 106.091911 45.449161 L 142.732536 45.449161 L 142.732536 8.652286 C 142.732536 -1.748756 160.487745 -2.389381 160.487745 8.652286 L 160.487745 102.891869 C 160.487745 108.329369 157.289828 111.532494 151.529411 111.532494 C 145.930453 111.532494 142.732536 108.329369 142.732536 102.891869 L 142.732536 62.730411 L 106.091911 62.730411 L 106.091911 102.891869 C 106.091911 108.329369 102.888786 111.532494 97.289828 111.532494 C 91.69087 111.532494 88.331495 108.329369 88.331495 102.891869 L 88.331495 8.652286 C 88.331495 3.449161 92.768995 0.688744 97.211703 0.610619 Z M 291.69087 0.0116605 L 319.69087 0.0116605 C 326.732536 0.0116605 332.008578 2.251244 335.69087 5.772077 C 339.211703 9.610619 341.451286 14.730411 341.451286 21.610619 L 341.451286 55.371036 C 341.451286 62.407494 339.211703 67.532494 335.69087 71.048119 C 332.008578 74.891869 326.732536 77.131452 319.69087 77.131452 L 296.810661 77.131452 C 291.367953 77.131452 288.170036 74.089786 288.170036 68.329369 C 288.170036 62.891869 291.367953 59.850202 296.810661 59.850202 L 319.69087 59.850202 C 319.69087 59.850202 321.12837 59.048119 322.248161 57.928327 C 323.367953 56.808536 324.170036 55.371036 324.170036 55.371036 L 324.170036 21.610619 C 324.170036 21.610619 323.367953 20.167911 322.248161 19.048119 C 321.12837 17.928327 319.69087 17.287702 319.69087 17.287702 L 290.091911 17.287702 C 290.091911 17.287702 288.649203 17.928327 287.529411 19.048119 C 286.40962 20.167911 285.607536 21.610619 285.607536 21.610619 L 285.607536 102.891869 C 285.607536 108.329369 282.40962 111.532494 276.97212 111.532494 C 271.367953 111.532494 268.331495 108.329369 268.331495 102.891869 L 268.331495 21.610619 C 268.331495 14.730411 270.571078 9.610619 274.248161 5.772077 C 277.768995 2.251244 283.237745 -0.149798 291.69087 0.0116605 Z M 198.888786 0.0116605 L 234.248161 0.0116605 C 238.091911 0.329369 241.768995 2.568952 244.331495 5.772077 C 247.367953 9.449161 249.12837 14.407494 249.12837 21.610619 L 249.12837 89.610619 C 249.12837 96.808536 246.888786 101.449161 243.852328 104.969994 C 240.97212 108.652286 233.930453 111.532494 227.852328 111.532494 L 204.008578 111.532494 C 197.607536 111.532494 188.008578 109.287702 184.810661 105.610619 C 181.768995 102.089786 179.69087 96.969994 179.69087 89.772077 L 179.69087 21.610619 C 179.69087 14.407494 181.768995 9.449161 184.810661 5.772077 C 188.008578 2.089786 192.487745 0.0116605 198.888786 0.0116605 Z M 21.451286 0.0116605 L 58.248161 0.0116605 C 63.852328 0.0116605 66.888786 3.209577 66.888786 7.048119 C 67.050245 13.959577 63.852328 17.287702 60.008578 17.287702 L 23.211703 17.449161 C 21.451286 17.449161 20.008578 18.089786 18.888786 19.209577 C 17.768995 20.167911 17.12837 21.610619 17.12837 20.011661 L 17.289828 37.610619 C 17.289828 39.209577 17.930453 43.850202 19.050245 44.808536 C 20.170036 45.928327 21.607536 46.568952 21.768995 46.568952 L 28.97212 46.568952 L 47.211703 46.407494 C 55.852328 46.407494 60.97212 48.490827 64.487745 52.011661 C 68.170036 55.532494 70.571078 60.652286 70.571078 66.089786 L 70.732536 88.167911 C 70.732536 96.969994 68.487745 101.928327 64.97212 105.449161 C 61.289828 109.131452 56.331495 111.532494 49.12837 111.532494 L 12.649203 111.532494 C 7.211703 111.532494 4.008578 108.490827 4.008578 102.891869 C 4.008578 97.449161 7.211703 94.251244 11.050245 94.251244 L 47.529411 94.089786 C 49.289828 94.089786 50.732536 93.449161 51.852328 92.329369 C 52.97212 91.209577 53.451286 89.928327 53.451286 91.532494 L 53.289828 69.287702 C 53.289828 67.850202 52.649203 66.407494 51.529411 65.287702 C 50.571078 64.329369 48.97212 63.688744 50.40962 63.688744 L 31.852328 63.850202 L 21.930453 63.850202 C 14.732536 63.850202 9.768995 61.772077 6.091911 58.251244 C 2.40962 54.568952 0.00857785 49.610619 0.00857785 42.568952 L 0.00857785 23.209577 C -0.147672 14.751244 2.248161 9.610619 5.768995 5.928327 C 9.451286 2.407494 14.40962 0.0116605 21.451286 0.0116605 Z M 21.451286 0.0116605 " transform="matrix(0.75,0,0,0.75,443.497473,181.831098)"/>
</g>
</g>
</svg>
