<?xml version="1.0" encoding="UTF-8"?>
<svg xmlns="http://www.w3.org/2000/svg" xmlns:xlink="http://www.w3.org/1999/xlink" width="975pt" height="330pt" viewBox="0 0 975 330" version="1.1">
<defs>
<clipPath id="clip1">
  <path d="M 0 0 L 975 0 L 975 330 L 0 330 Z M 0 0 "/>
</clipPath>
</defs>
<g id="surface0">
<g clip-path="url(#clip1)" clip-rule="nonzero">
<path style="fill-rule:evenodd;fill:rgb(98.431373%,99.215686%,54.117647%);fill-opacity:1;stroke-width:2;stroke-linecap:square;stroke-linejoin:miter;stroke:rgb(98.431373%,99.215686%,54.117647%);stroke-opacity:1;stroke-miterlimit:2400;" d="M -0.000000000000198952 12.871458 C -0.000000000000198952 5.762083 5.760417 0.00166667 12.869792 0.00166667 L 247.130208 0.00166667 C 254.239583 0.00166667 260 5.762083 260 12.871458 L 260 404.131875 C 260 411.24125 254.239583 417.001667 247.130208 417.001667 L 12.869792 417.001667 C 5.760417 417.001667 -0.000000000000198952 411.24125 -0.000000000000198952 404.131875 Z M -0.000000000000198952 12.871458 " transform="matrix(0.75,0,0,0.75,54,10.53)"/>
<path style="fill-rule:evenodd;fill:rgb(52.941176%,87.45098%,83.921569%);fill-opacity:1;stroke-width:2;stroke-linecap:square;stroke-linejoin:miter;stroke:rgb(52.941176%,87.45098%,83.921569%);stroke-opacity:1;stroke-miterlimit:2400;" d="M 0 0.00166667 L 188 0.00166667 L 188 311.001667 L 0 311.001667 Z M 0 0.00166667 " transform="matrix(0.75,0,0,0.75,81,33.03)"/>
<path style="fill-rule:evenodd;fill:rgb(46.666667%,46.666667%,46.666667%);fill-opacity:1;stroke-width:2;stroke-linecap:round;stroke-linejoin:round;stroke:rgb(46.666667%,46.666667%,46.666667%);stroke-opacity:1;stroke-miterlimit:10;" d="M 55 20.952527 C 55 34.171277 42.6875 44.890027 27.5 44.890027 C 12.3125 44.890027 0 34.171277 0 20.952527 C 0 7.718152 12.3125 -3.000598 27.5 -3.000598 C 42.6875 -3.000598 55 7.718152 55 20.952527 Z M 55 20.952527 " transform="matrix(0.75,0,0,0.75,130.875,276.445761)"/>
<path style="fill:none;stroke-width:2;stroke-linecap:square;stroke-linejoin:miter;stroke:rgb(96.078431%,96.078431%,98.039216%);stroke-opacity:1;stroke-miterlimit:2400;" d="M 0 0.00166667 L 16 0.00166667 L 16 16.001667 L 0 16.001667 Z M 0 0.00166667 " transform="matrix(0.75,0,0,0.75,145.5,286.155)"/>
<path style="fill-rule:nonzero;fill:rgb(98.431373%,99.215686%,54.117647%);fill-opacity:1;stroke-width:1;stroke-linecap:butt;stroke-linejoin:miter;stroke:rgb(98.431373%,99.215686%,54.117647%);stroke-opacity:1;stroke-miterlimit:10;" d="M 596.160774 68.757877 C 590.077441 68.757877 578.238899 72.408919 578.561816 80.27871 C 578.561816 90.362044 589.442024 94.518294 597.598274 94.518294 L 613.921191 94.518294 L 613.921191 77.721419 C 611.202441 74.200585 604.957649 68.757877 596.160774 68.757877 Z M 754.598274 42.820377 C 745.718066 43.039127 736.561816 49.320377 735.358691 61.080794 L 772.160774 60.919335 C 772.077441 48.440169 763.478482 42.601627 754.598274 42.820377 Z M 371.879524 42.820377 C 362.999316 43.039127 353.837857 49.320377 352.639941 61.080794 L 389.442024 60.919335 C 389.358691 48.440169 380.759732 42.601627 371.879524 42.820377 Z M 205.759732 42.200585 C 191.837857 42.679752 182.718066 57.908919 183.040982 67.638085 C 183.358691 79.799544 191.290982 96.919335 202.561816 96.27871 C 216.957649 95.799544 224.957649 80.440169 225.280566 69.27871 C 224.957649 58.679752 217.009732 41.721419 205.759732 42.200585 Z M 837.061816 28.658919 C 844.837857 29.221419 852.181607 31.768294 859.202441 35.638085 C 866.077441 40.481835 859.020149 53.080794 849.598274 49.080794 C 844.160774 45.877669 839.040982 43.320377 832.639941 42.84121 C 830.181607 42.518294 821.921191 45.242252 820.322232 51.158919 C 817.280566 58.929752 835.040982 60.601627 843.040982 62.518294 C 855.999316 66.039127 867.681607 79.299544 860.322232 96.12246 C 857.280566 102.518294 850.718066 106.84121 843.837857 108.601627 C 835.999316 110.99746 823.681607 110.99746 815.681607 108.440169 C 810.718066 106.84121 805.280566 104.440169 801.598274 100.757877 C 796.322232 93.481835 806.770149 83.481835 813.759732 89.080794 C 820.957649 96.27871 837.087857 98.362044 844.639941 89.877669 C 847.040982 87.158919 847.358691 84.112044 844.801399 81.55996 C 841.442024 77.877669 836.322232 76.919335 830.400357 75.638085 C 816.639941 72.27871 801.598274 65.80996 804.478482 47.320377 C 805.759732 40.12246 811.202441 33.877669 818.077441 31.320377 C 821.869107 29.99746 825.551399 29.179752 829.139941 28.799544 C 831.827441 28.518294 834.468066 28.481835 837.061816 28.658919 Z M 681.379524 28.658919 C 689.160774 29.221419 696.499316 31.768294 703.520149 35.638085 C 710.400357 40.481835 703.337857 53.080794 693.921191 49.080794 C 688.478482 45.877669 683.358691 43.320377 676.957649 42.84121 C 674.499316 42.518294 666.238899 45.242252 664.639941 51.158919 C 661.598274 58.929752 679.358691 60.601627 687.358691 62.518294 C 700.322232 66.039127 711.999316 79.299544 704.639941 96.12246 C 701.598274 102.518294 695.040982 106.84121 688.160774 108.601627 C 680.322232 110.99746 667.999316 110.99746 659.999316 108.440169 C 655.040982 106.84121 649.598274 104.440169 645.921191 100.757877 C 640.639941 93.481835 651.087857 83.481835 658.077441 89.080794 C 665.280566 96.27871 681.410774 98.362044 688.957649 89.877669 C 691.358691 87.158919 691.681607 84.112044 689.119107 81.55996 C 685.759732 77.877669 680.639941 76.919335 674.718066 75.638085 C 660.957649 72.27871 645.921191 65.80996 648.801399 47.320377 C 650.077441 40.12246 655.520149 33.877669 662.400357 31.320377 C 666.192024 29.99746 669.869107 29.179752 673.457649 28.799544 C 676.150357 28.518294 678.790982 28.481835 681.379524 28.658919 Z M 205.759732 28.27871 C 227.202441 28.919335 240.322232 47.320377 241.119107 66.84121 L 241.119107 71.799544 C 240.322232 90.362044 227.119107 111.158919 202.561816 110.362044 C 181.598274 109.55996 166.561816 90.721419 167.202441 67.638085 C 167.681607 48.919335 180.869107 27.481835 205.759732 28.27871 Z M 754.202441 27.888085 C 763.629524 27.648502 773.160774 30.789127 779.040982 37.721419 C 786.400357 46.200585 793.442024 74.929752 776.957649 76.440169 L 735.681607 76.440169 C 736.801399 90.84121 757.988899 102.99746 772.801399 88.919335 C 780.577441 83.638085 790.879524 93.929752 784.957649 100.919335 C 776.801399 108.601627 762.457649 111.481835 749.759732 110.039127 C 730.238899 106.84121 718.238899 88.27871 718.238899 68.440169 C 718.238899 52.440169 726.077441 37.721419 739.999316 30.99746 C 743.160774 29.601627 746.619107 28.658919 750.181607 28.200585 C 751.509732 28.02871 752.848274 27.929752 754.202441 27.888085 Z M 371.478482 27.888085 C 380.910774 27.648502 390.442024 30.789127 396.322232 37.721419 C 403.681607 46.200585 410.718066 74.929752 394.238899 76.440169 L 352.957649 76.440169 C 354.077441 90.84121 375.270149 102.99746 390.077441 88.919335 C 397.858691 83.638085 408.160774 93.929752 402.238899 100.919335 C 394.077441 108.601627 379.738899 111.481835 367.040982 110.039127 C 347.520149 106.84121 335.520149 88.27871 335.520149 68.440169 C 335.520149 52.440169 343.358691 37.721419 357.280566 30.99746 C 360.442024 29.601627 363.900357 28.658919 367.457649 28.200585 C 368.790982 28.02871 370.129524 27.929752 371.478482 27.888085 Z M 596.348274 26.711002 C 599.400357 26.59121 602.457649 26.638085 605.442024 26.84121 C 616.160774 27.638085 629.759732 32.601627 629.759732 46.99746 L 629.759732 102.518294 C 629.759732 108.919335 625.598274 110.200585 620.957649 110.362044 C 598.077441 110.362044 591.181607 110.518294 586.561816 109.55996 C 571.999316 106.679752 558.400357 91.24746 563.837857 73.242252 C 568.478482 59.799544 581.598274 53.398502 596.801399 53.398502 C 605.280566 53.398502 612.478482 55.481835 613.921191 59.799544 L 613.921191 46.99746 C 604.540982 38.200585 593.759732 40.601627 581.119107 46.200585 C 571.738899 50.362044 564.478482 37.77871 571.520149 32.757877 C 578.119107 28.919335 587.202441 27.05996 596.348274 26.711002 Z M 259.358691 25.919335 C 263.280566 25.919335 267.202441 28.362044 267.202441 33.242252 L 267.202441 35.961002 C 276.322232 29.080794 295.660774 25.242252 308.322232 31.158919 C 318.238899 36.12246 320.957649 45.55996 320.957649 58.679752 C 321.119107 77.648502 320.801399 87.799544 320.478482 104.27871 C 320.322232 112.440169 304.639941 112.440169 304.801399 101.080794 C 305.119107 86.200585 305.280566 78.200585 305.280566 64.919335 C 305.280566 58.200585 305.759732 51.471419 301.921191 47.320377 C 294.051399 37.721419 275.202441 47.158919 267.202441 54.362044 L 267.202441 102.84121 C 267.202441 112.440169 251.520149 112.440169 251.520149 102.84121 L 251.520149 33.242252 C 251.520149 28.362044 255.442024 25.919335 259.358691 25.919335 Z M 15.681607 16.27871 L 15.681607 55.799544 C 32.801399 55.799544 40.499316 57.398502 47.040982 53.080794 C 64.160774 43.148502 59.202441 18.679752 38.238899 16.27871 L 15.681607 16.27871 Z M 7.837857 0.601627 L 33.442024 0.601627 C 85.598274 0.601627 86.561816 71.638085 34.077441 71.638085 L 15.681607 71.638085 L 15.681607 102.679752 C 15.681607 112.440169 -0.000684289 112.440169 -0.000684289 102.679752 L -0.000684289 8.440169 C -0.000684289 3.320377 2.879524 0.601627 7.837857 0.601627 Z M 94.077441 0.320377 C 97.999316 0.320377 101.921191 2.757877 101.921191 7.638085 L 101.921191 35.638085 C 110.077441 28.601627 126.968066 24.919335 139.837857 31.158919 C 149.598274 36.440169 152.478482 45.55996 152.478482 58.679752 C 152.639941 77.648502 152.322232 87.799544 151.999316 104.27871 C 151.837857 112.440169 136.160774 112.440169 136.322232 101.080794 C 136.639941 86.200585 136.801399 78.200585 136.801399 64.919335 C 136.801399 58.200585 137.280566 51.471419 133.442024 47.320377 C 125.681607 37.721419 109.759732 47.158919 101.921191 54.362044 L 101.921191 102.84121 C 101.921191 112.440169 86.238899 112.440169 86.238899 102.84121 L 86.238899 7.638085 C 86.238899 2.757877 90.160774 0.320377 94.077441 0.320377 Z M 524.421191 0.0287102 C 532.598274 0.34121 540.837857 2.721419 548.478482 7.638085 C 555.040982 13.018294 547.910774 26.200585 538.879524 21.721419 C 514.478482 4.12246 483.358691 28.377669 484.160774 54.84121 C 484.801399 83.481835 512.228482 106.99746 536.957649 87.481835 C 540.952441 85.398502 547.202441 86.99746 548.801399 89.721419 C 550.718066 94.24746 549.280566 99.481835 546.561816 101.398502 C 538.238899 107.481835 527.072232 110.99746 514.238899 110.200585 C 481.921191 107.799544 462.718066 72.929752 469.921191 40.601627 C 475.801399 16.84121 499.869107 -0.887956 524.421191 0.0287102 Z M 524.421191 0.0287102 " transform="matrix(0.75,0,0,0.75,272.750513,59.896436)"/>
<path style="fill-rule:nonzero;fill:rgb(98.431373%,99.215686%,54.117647%);fill-opacity:1;stroke-width:1;stroke-linecap:butt;stroke-linejoin:miter;stroke:rgb(98.431373%,99.215686%,54.117647%);stroke-opacity:1;stroke-miterlimit:10;" d="M 316.050875 16.488809 L 316.050875 56.009643 C 333.170667 56.009643 340.868584 57.608601 347.41025 53.290893 C 364.530042 43.358601 359.571709 18.889851 338.608167 16.488809 L 316.050875 16.488809 Z M 237.488375 13.770059 C 215.727959 14.249226 202.608167 36.561726 202.931084 53.608601 C 203.41025 72.967976 215.217542 97.290893 234.290459 96.811726 C 256.530042 96.171101 268.84775 73.770059 269.332125 55.238809 C 268.84775 37.452351 256.571709 13.290893 237.488375 13.770059 Z M 40.712334 1.332559 C 52.009209 1.202351 63.9415 4.572143 73.170667 11.051309 C 79.727959 16.629434 71.951917 30.249226 63.727959 25.129434 C 50.608167 14.087768 26.920667 8.650268 21.332125 30.087768 C 16.6915 46.249226 47.821709 45.931518 59.571709 51.051309 C 71.889417 56.332559 79.727959 72.238809 75.571709 87.530476 C 70.931084 102.572143 54.931084 109.608601 40.212334 109.770059 C 25.342542 110.087768 9.811292 106.572143 1.488375 97.129434 C -3.949125 89.348184 6.738375 79.051309 13.488375 85.129434 C 21.170667 92.650268 33.259209 96.009643 43.092542 93.452351 C 49.811292 91.848184 60.6915 87.369018 60.6915 78.410684 C 62.290459 57.129434 25.379 65.608601 12.050875 51.051309 C 7.727959 46.087768 5.332125 39.691934 5.170667 33.129434 C 4.868584 11.530476 21.899834 1.561726 40.712334 1.332559 Z M 308.212334 0.811726 L 333.811292 0.811726 C 385.967542 0.811726 386.931084 71.848184 334.451917 71.848184 L 316.050875 71.848184 L 316.050875 102.889851 C 316.050875 112.650268 300.368584 112.650268 300.368584 102.889851 L 300.368584 8.650268 C 300.368584 3.530476 303.248792 0.811726 308.212334 0.811726 Z M 97.649834 0.369018 C 101.649834 0.369018 105.649834 2.811726 105.649834 7.691934 L 105.649834 47.369018 L 153.649834 47.369018 L 153.649834 7.691934 C 153.649834 -2.068482 169.649834 -2.068482 169.649834 7.691934 L 169.649834 102.889851 C 169.649834 112.650268 153.649834 112.650268 153.649834 102.889851 L 153.649834 62.889851 L 105.649834 62.889851 L 105.649834 102.889851 C 105.649834 112.650268 89.649834 112.650268 89.649834 102.889851 L 89.649834 7.691934 C 89.649834 2.811726 93.649834 0.369018 97.649834 0.369018 Z M 237.488375 0.00964267 C 265.967542 0.811726 284.84775 25.770059 285.967542 52.009643 L 285.967542 57.608601 C 285.009209 83.530476 266.238375 111.051309 234.290459 110.410684 C 205.811292 109.770059 185.332125 83.780476 185.811292 53.608601 C 186.290459 27.691934 205.217542 -0.630982 237.488375 0.00964267 Z M 237.488375 0.00964267 " transform="matrix(0.75,0,0,0.75,470.196219,184.789643)"/>
</g>
</g>
</svg>
